# xmcd
#
# Track frame offsets:
#	150
#	42969
#	73677
#	88308
#	118912
#	148356
#	170452
#	239407
#	261597
#	281221
#	315222
#
# Disc length: 4691 seconds
#
# Revision: 1
# Processed by: cddbd v1.5PL3 Copyright (c) Steve Scherf et al.
# Submitted via: CDmax 2.0
#
DISCID=b012510b
DTITLE=Hot Tuna (Jorma, Jack and Barry) - Live at Poor David's Pub, Dallas, T
DTITLE=X - 02.11.2004 - d2
DYEAR=2004
DGENRE=Blues
TTITLE0=Another Man Done Gone > Keeps Your Lamps Trimmed and Burning
TTITLE1=I See The Light
TTITLE2=Fur Peace Rag
TTITLE3=Breadline Blues
TTITLE4=Uncle Sam Blues
TTITLE5=Living In The Moment
TTITLE6=Good Shepard
TTITLE7=Genesis
TTITLE8=I Am The Light Of This World
TTITLE9=Just Because
TTITLE10=Encore: 9 Pound Hammer
EXTD=
EXTT0=
EXTT1=
EXTT2=
EXTT3=
EXTT4=
EXTT5=
EXTT6=
EXTT7=
EXTT8=
EXTT9=
EXTT10=
PLAYORDER=
